<svg xmlns="http://www.w3.org/2000/svg" xmlns:xlink="http://www.w3.org/1999/xlink" viewBox="0 0 500 500">
  <rect width="500" height="500" fill="#faf8f5"/>
  <defs>
    <linearGradient id="grad" x1="0%" y1="0%" x2="100%" y2="100%">
      <stop offset="0%" style="stop-color:#b8954a"/>
      <stop offset="100%" style="stop-color:#8a6228"/>
    </linearGradient>
  </defs>
  <rect x="125" y="200" width="250" height="200" fill="url(#grad)" rx="10"/>
  <polygon points="250,80 80,200 420,200" fill="#d4c4a8"/>
  <rect x="200" y="300" width="100" height="100" fill="#f5f0e8" rx="5"/>
  <rect x="225" y="325" width="50" height="75" fill="#725026" rx="3"/>
  <circle cx="265" cy="362" r="4" fill="#f5f0e8"/>
  <rect x="150" y="230" width="40" height="50" fill="#f5f0e8" rx="3"/>
  <rect x="310" y="230" width="40" height="50" fill="#f5f0e8" rx="3"/>
  <line x1="170" y1="240" x2="170" y2="270" stroke="#b8954a" stroke-width="2"/>
  <line x1="155" y1="255" x2="185" y2="255" stroke="#b8954a" stroke-width="2"/>
  <line x1="330" y1="240" x2="330" y2="270" stroke="#b8954a" stroke-width="2"/>
  <line x1="315" y1="255" x2="345" y2="255" stroke="#b8954a" stroke-width="2"/>
  <circle cx="250" cy="140" r="30" fill="#f5f0e8"/>
  <path d="M250 120 L245 135 L235 135 L243 145 L240 160 L250 152 L260 160 L257 145 L265 135 L255 135 Z" fill="#b8954a"/>
</svg>
